# xmcd CD database file generated by Grip 3.2.0
# 
# Track frame offsets:
#       150
#       36675
#       72844
#       106690
#       134365
#       157794
#       188979
# 
# Disc length: 2762 seconds
# 
# Revision: 1
# Processed by: cddbd v1.5.1PL0 Copyright (c) Steve Scherf et al.
# Submitted via: Grip 3.2.0
# 
DISCID=5a0ac807
DTITLE=Shantikala - Silverwolf
DYEAR=2000
DGENRE=New Age
TTITLE0=Karawane
TTITLE1=Toquanah
TTITLE2=Shantikala
TTITLE3=Silverwolf
TTITLE4=Chinmela
TTITLE5=Prayer
TTITLE6=Sweet Medicine
EXTD=
EXTT0=
EXTT1=
EXTT2=
EXTT3=
EXTT4=
EXTT5=
EXTT6=
PLAYORDER=
